<svg width="20" height="20" viewBox="0 0 20 20" fill="none" xmlns="http://www.w3.org/2000/svg">
<g clip-path="url(#clip0)">
<path d="M18.752 11.25V18.125C18.752 18.2908 18.6862 18.4497 18.569 18.5669C18.4517 18.6842 18.2928 18.75 18.127 18.75H1.87701C1.71125 18.75 1.55228 18.6842 1.43507 18.5669C1.31786 18.4497 1.25201 18.2908 1.25201 18.125V4.375C1.25201 4.20924 1.31786 4.05027 1.43507 3.93306C1.55228 3.81585 1.71125 3.75 1.87701 3.75H18.127C18.2928 3.75 18.4517 3.81585 18.569 3.93306C18.6862 4.05027 18.752 4.20924 18.752 4.375V11.25ZM20.002 11.25V4.375C20.002 3.87772 19.8045 3.40081 19.4528 3.04917C19.1012 2.69754 18.6243 2.5 18.127 2.5H1.87701C1.37973 2.5 0.90282 2.69754 0.551189 3.04917C0.199558 3.40081 0.00201416 3.87772 0.00201416 4.375V18.125C0.00201416 18.6223 0.199558 19.0992 0.551189 19.4508C0.725299 19.6249 0.931997 19.763 1.15948 19.8573C1.38697 19.9515 1.63079 20 1.87701 20H18.127C18.6243 20 19.1012 19.8025 19.4528 19.4508C19.8045 19.0992 20.002 18.6223 20.002 18.125V11.25ZM0.627014 8.75H19.377C19.5428 8.75 19.7017 8.68415 19.819 8.56694C19.9362 8.44973 20.002 8.29076 20.002 8.125C20.002 7.95924 19.9362 7.80027 19.819 7.68306C19.7017 7.56585 19.5428 7.5 19.377 7.5H0.627014C0.461254 7.5 0.302283 7.56585 0.185072 7.68306C0.0678622 7.80027 0.00201416 7.95924 0.00201416 8.125C0.00201416 8.29076 0.0678622 8.44973 0.185072 8.56694C0.302283 8.68415 0.461254 8.75 0.627014 8.75V8.75ZM6.25201 5V0.625C6.25201 0.45924 6.18617 0.300268 6.06896 0.183058C5.95175 0.065848 5.79277 0 5.62701 0C5.46125 0 5.30228 0.065848 5.18507 0.183058C5.06786 0.300268 5.00201 0.45924 5.00201 0.625V5C5.00201 5.16576 5.06786 5.32473 5.18507 5.44194C5.30228 5.55915 5.46125 5.625 5.62701 5.625C5.79277 5.625 5.95175 5.55915 6.06896 5.44194C6.18617 5.32473 6.25201 5.16576 6.25201 5V5ZM15.002 5V0.625C15.002 0.45924 14.9362 0.300268 14.819 0.183058C14.7017 0.065848 14.5428 0 14.377 0C14.2113 0 14.0523 0.065848 13.9351 0.183058C13.8179 0.300268 13.752 0.45924 13.752 0.625V5C13.752 5.16576 13.8179 5.32473 13.9351 5.44194C14.0523 5.55915 14.2113 5.625 14.377 5.625C14.5428 5.625 14.7017 5.55915 14.819 5.44194C14.9362 5.32473 15.002 5.16576 15.002 5V5Z" fill="#BDBDBD"/>
</g>
<defs>
<clipPath id="clip0">
<rect width="20" height="20" fill="white"/>
</clipPath>
</defs>
</svg>
