<svg width="20" height="20" viewBox="0 0 20 20" fill="none" xmlns="http://www.w3.org/2000/svg">
<g clip-path="url(#clip0)">
<path d="M13.75 5C13.75 5.99456 13.3549 6.94839 12.6516 7.65165C11.9484 8.35491 10.9946 8.75 10 8.75C9.00544 8.75 8.05161 8.35491 7.34835 7.65165C6.64509 6.94839 6.25 5.99456 6.25 5C6.25 4.00544 6.64509 3.05161 7.34835 2.34835C8.05161 1.64509 9.00544 1.25 10 1.25C10.9946 1.25 11.9484 1.64509 12.6516 2.34835C13.3549 3.05161 13.75 4.00544 13.75 5V5ZM15 5C15 3.67392 14.4732 2.40215 13.5355 1.46447C12.5979 0.526784 11.3261 0 10 0C8.67392 0 7.40215 0.526784 6.46447 1.46447C5.52678 2.40215 5 3.67392 5 5C5 6.32608 5.52678 7.59785 6.46447 8.53553C7.40215 9.47322 8.67392 10 10 10C11.3261 10 12.5979 9.47322 13.5355 8.53553C14.4732 7.59785 15 6.32608 15 5ZM2.5 19.375C2.5 18.3901 2.69399 17.4148 3.0709 16.5049C3.44781 15.5949 4.00026 14.7681 4.6967 14.0717C5.39314 13.3753 6.21993 12.8228 7.12987 12.4459C8.03982 12.069 9.01509 11.875 10 11.875C10.9849 11.875 11.9602 12.069 12.8701 12.4459C13.7801 12.8228 14.6069 13.3753 15.3033 14.0717C15.9997 14.7681 16.5522 15.5949 16.9291 16.5049C17.306 17.4148 17.5 18.3901 17.5 19.375C17.5 19.5408 17.5658 19.6997 17.6831 19.8169C17.8003 19.9342 17.9592 20 18.125 20C18.2908 20 18.4497 19.9342 18.5669 19.8169C18.6842 19.6997 18.75 19.5408 18.75 19.375C18.75 14.5425 14.8325 10.625 10 10.625C5.1675 10.625 1.25 14.5425 1.25 19.375C1.25 19.5408 1.31585 19.6997 1.43306 19.8169C1.55027 19.9342 1.70924 20 1.875 20C2.04076 20 2.19973 19.9342 2.31694 19.8169C2.43415 19.6997 2.5 19.5408 2.5 19.375Z" fill="#BDBDBD"/>
</g>
<defs>
<clipPath id="clip0">
<rect width="20" height="20" fill="white"/>
</clipPath>
</defs>
</svg>
