<svg width="20" height="20" viewBox="0 0 20 20" fill="none" xmlns="http://www.w3.org/2000/svg">
<g clip-path="url(#clip0)">
<path d="M14.5531 5.4661C15.2718 7.15708 15.2894 9.06431 14.6019 10.7682C13.9144 12.4722 12.5782 13.8332 10.8872 14.5519C9.19627 15.2707 7.28903 15.2882 5.58511 14.6008C3.88119 13.9133 2.52015 12.5771 1.80141 10.8861C1.08268 9.19512 1.06511 7.28789 1.75259 5.58396C2.44007 3.88004 3.77627 2.519 5.46725 1.80027C7.15822 1.08153 9.06546 1.06397 10.7694 1.75145C12.4733 2.43892 13.8343 3.77512 14.5531 5.4661V5.4661ZM15.7031 4.97777C13.9364 0.821099 9.13558 -1.1164 4.97808 0.650266C0.823079 2.4161 -1.11442 7.21777 0.652246 11.3744C2.41891 15.5303 7.21975 17.4678 11.3772 15.7011C15.5331 13.9344 17.4706 9.1336 15.7039 4.9761L15.7031 4.97777ZM13.0756 13.9578L18.9331 19.8161C19.0516 19.9265 19.2083 19.9866 19.3702 19.9837C19.5321 19.9809 19.6866 19.9153 19.8011 19.8008C19.9156 19.6863 19.9812 19.5318 19.9841 19.3699C19.9869 19.208 19.9268 19.0512 19.8164 18.9328L13.9589 13.0744C13.8404 12.964 13.6837 12.9039 13.5218 12.9068C13.3599 12.9096 13.2054 12.9752 13.0909 13.0897C12.9764 13.2043 12.9108 13.3587 12.9079 13.5207C12.9051 13.6826 12.9652 13.8393 13.0756 13.9578V13.9578Z" fill="#BDBDBD"/>
</g>
<defs>
<clipPath id="clip0">
<rect width="20" height="20" fill="white"/>
</clipPath>
</defs>
</svg>
